<svg 
 xmlns="http://www.w3.org/2000/svg"
 xmlns:xlink="http://www.w3.org/1999/xlink"
 width="26px" height="26px">
<path fill-rule="evenodd"  fill="rgb(76, 107, 186)"
 d="M25.563,5.401 L25.563,20.301 C25.563,23.180 23.228,25.514 20.348,25.514 L17.725,25.514 L17.725,15.723 L21.035,15.723 L21.525,11.890 L17.725,11.890 L17.725,9.446 C17.725,8.342 18.032,7.580 19.624,7.580 L21.638,7.580 L21.638,4.169 C21.286,4.124 20.080,4.021 18.692,4.021 C15.768,4.021 13.765,5.795 13.765,9.070 L13.765,11.890 L10.478,11.890 L10.478,15.723 L13.765,15.723 L13.765,25.514 L5.453,25.514 C2.573,25.514 0.239,23.180 0.239,20.301 L0.239,5.401 C0.239,2.522 2.573,0.188 5.453,0.188 L20.348,0.188 C23.228,0.188 25.563,2.522 25.563,5.401 Z"/>
</svg>