<svg 
 xmlns="http://www.w3.org/2000/svg"
 xmlns:xlink="http://www.w3.org/1999/xlink">
<path fill-rule="evenodd"  fill="rgb(255, 255, 255)"
 d="M15.147,9.909 L40.330,9.909 L26.574,20.748 C26.282,20.978 25.936,21.090 25.621,21.121 C25.304,21.090 24.956,20.977 24.662,20.748 L14.831,12.1000 C14.726,12.916 14.609,12.851 14.480,12.811 C14.942,12.156 15.206,11.363 15.192,10.509 C15.190,10.314 15.173,10.112 15.147,9.909 L15.147,9.909 ZM8.743,2.937 C8.775,2.942 8.827,2.963 8.940,3.016 C9.164,3.121 9.520,3.397 9.868,3.780 C10.570,4.546 11.271,5.708 11.635,6.476 C11.647,6.498 11.658,6.523 11.669,6.549 C12.702,8.327 13.147,9.687 13.161,10.541 C13.175,11.397 12.946,11.767 12.222,12.184 L10.354,13.265 C9.137,13.968 8.562,15.228 8.419,16.403 C8.275,17.579 8.486,18.722 9.008,19.626 L13.619,27.601 C14.142,28.504 15.034,29.259 16.124,29.723 C17.215,30.188 18.596,30.319 19.813,29.618 L21.681,28.539 C22.405,28.123 22.842,28.115 23.577,28.553 C24.314,28.992 25.272,30.055 26.300,31.834 C26.315,31.860 26.329,31.881 26.345,31.907 C26.827,32.605 27.484,33.789 27.801,34.780 C27.958,35.273 28.020,35.718 27.1000,35.964 C27.978,36.211 27.973,36.185 27.908,36.224 L26.486,37.042 C22.915,38.596 19.641,38.246 16.716,36.723 C13.785,35.194 11.238,32.433 9.462,29.192 C9.456,29.185 9.453,29.177 9.448,29.173 L5.558,22.445 C5.552,22.439 5.549,22.434 5.544,22.425 C3.619,19.268 2.498,15.683 2.638,12.386 C2.779,9.093 4.111,6.092 7.247,3.782 L8.669,2.967 C8.702,2.948 8.712,2.933 8.743,2.937 L8.743,2.937 ZM8.758,0.932 C8.381,0.926 7.997,1.006 7.652,1.207 L6.148,2.074 C6.115,2.094 6.083,2.113 6.053,2.133 C2.435,4.790 0.769,8.489 0.606,12.302 C0.444,16.112 1.712,20.046 3.807,23.484 L7.684,30.188 L7.675,30.169 C9.610,33.698 12.384,36.760 15.773,38.523 C19.164,40.290 23.203,40.699 27.317,38.898 C27.351,38.884 27.386,38.868 27.416,38.849 L28.922,37.981 C29.618,37.583 29.969,36.810 30.025,36.134 C30.084,35.461 29.947,34.805 29.739,34.159 C29.332,32.883 28.623,31.641 28.036,30.790 C26.929,28.878 25.859,27.552 24.623,26.810 C23.378,26.064 21.883,26.075 20.663,26.779 L18.795,27.859 C18.243,28.179 17.598,28.142 16.918,27.853 C16.242,27.565 15.616,26.988 15.384,26.584 L10.772,18.609 C10.539,18.203 10.349,17.375 10.439,16.644 C10.526,15.916 10.821,15.345 11.373,15.026 L13.188,13.978 C13.236,14.223 13.373,14.444 13.572,14.593 L23.404,22.344 C24.043,22.848 24.801,23.129 25.564,23.173 C25.602,23.175 25.642,23.175 25.681,23.173 C26.445,23.129 27.198,22.848 27.838,22.344 L41.379,11.670 L41.379,29.304 C41.379,29.572 41.074,29.926 40.476,29.926 L31.102,29.926 C30.538,29.922 30.081,30.380 30.081,30.942 C30.081,31.504 30.538,31.961 31.102,31.958 L40.476,31.958 C42.008,31.958 43.416,30.846 43.416,29.304 L43.416,10.530 C43.416,8.986 42.008,7.876 40.476,7.876 L14.589,7.876 C14.303,7.156 13.924,6.394 13.448,5.566 C13.001,4.634 12.278,3.402 11.372,2.411 C10.915,1.909 10.421,1.464 9.804,1.177 L9.804,1.179 C9.498,1.034 9.133,0.940 8.758,0.932 L8.758,0.932 Z"/>
</svg>