<svg 
 xmlns="http://www.w3.org/2000/svg"
 xmlns:xlink="http://www.w3.org/1999/xlink">
<path fill-rule="evenodd"  fill="rgb(51, 51, 51)"
 d="M64.276,16.623 L64.866,17.217 C65.344,17.696 65.396,18.457 64.986,18.996 L62.449,22.336 C64.668,25.717 66.855,30.574 63.446,33.905 L31.910,65.587 C33.494,67.373 33.437,70.086 31.778,71.803 C30.031,73.611 27.155,73.654 25.354,71.899 L21.472,67.999 L18.596,70.888 L19.553,71.850 C20.841,73.153 20.841,75.255 19.553,76.558 L17.805,78.314 C16.508,79.608 14.416,79.608 13.119,78.314 L0.969,66.105 C0.968,66.104 0.967,66.103 0.967,66.102 C-0.326,64.802 -0.324,62.696 0.969,61.398 C2.057,60.367 3.359,58.540 5.060,58.666 C6.440,58.588 7.503,59.671 8.365,60.610 L11.243,57.720 L7.353,53.811 C5.625,52.080 5.568,49.287 7.222,47.485 C8.924,45.632 11.798,45.517 13.642,47.226 L16.696,44.158 C25.536,35.278 36.341,24.420 45.166,15.555 C48.455,12.102 53.373,14.347 56.694,16.536 L60.010,13.997 C60.547,13.585 61.305,13.637 61.781,14.119 L62.368,14.712 L76.633,0.379 C77.155,-0.128 77.983,-0.128 78.505,0.379 C79.041,0.898 79.056,1.755 78.539,2.293 L64.276,16.623 ZM5.497,61.554 C5.494,61.551 5.490,61.547 5.487,61.544 C5.245,61.307 4.858,61.311 4.622,61.554 L2.874,63.310 C2.871,63.313 2.868,63.316 2.865,63.319 C2.629,63.562 2.633,63.951 2.874,64.188 L15.025,76.395 C15.026,76.396 15.027,76.397 15.028,76.398 C15.270,76.639 15.660,76.637 15.900,76.395 L17.647,74.639 C17.649,74.638 17.650,74.636 17.651,74.635 C17.891,74.393 17.889,74.001 17.647,73.760 L15.739,71.843 L5.497,61.554 ZM10.272,62.522 L16.690,68.970 L19.566,66.081 L13.148,59.633 L10.272,62.522 ZM12.700,50.094 C12.138,49.537 11.445,48.652 10.567,48.726 C10.095,48.733 9.643,48.922 9.303,49.251 C8.563,49.970 8.543,51.155 9.258,51.897 L27.260,69.979 C27.997,70.677 29.148,70.677 29.886,69.979 C30.603,69.248 30.600,68.073 29.880,67.345 L12.700,50.094 ZM60.704,16.870 L58.917,18.235 C59.578,18.807 60.195,19.427 60.765,20.091 L62.128,18.295 L60.704,16.870 ZM50.553,16.583 C49.319,16.207 47.980,16.549 47.073,17.470 L44.147,20.410 C47.221,21.849 50.028,23.804 52.448,26.191 C52.979,26.715 52.988,27.572 52.467,28.106 C51.946,28.640 51.092,28.648 50.561,28.125 C48.121,25.718 45.252,23.795 42.104,22.457 L36.106,28.484 C39.179,29.923 41.987,31.879 44.407,34.266 C44.938,34.789 44.947,35.647 44.426,36.181 C43.905,36.715 43.051,36.723 42.520,36.200 C40.081,33.795 37.213,31.873 34.065,30.536 L28.067,36.562 C31.140,38.001 33.948,39.956 36.367,42.343 C36.614,42.593 36.755,42.930 36.760,43.281 C36.771,44.034 36.173,44.653 35.424,44.664 C35.071,44.665 34.732,44.526 34.480,44.277 C32.043,41.872 29.176,39.950 26.030,38.612 L20.031,44.638 C23.105,46.077 25.912,48.033 28.332,50.420 C28.863,50.944 28.872,51.801 28.351,52.335 C27.830,52.869 26.976,52.877 26.445,52.354 C23.1000,49.956 21.133,48.035 17.990,46.689 L15.555,49.133 L30.018,63.657 L61.538,31.992 C62.453,31.071 62.788,29.718 62.411,28.473 C60.681,22.770 56.233,18.310 50.553,16.583 ZM76.939,10.714 C77.598,10.355 78.422,10.600 78.779,11.263 C79.614,12.855 82.337,18.213 82.337,20.276 C82.113,26.593 73.057,26.589 72.834,20.276 C72.834,18.213 75.558,12.855 76.392,11.263 C76.518,11.030 76.707,10.839 76.939,10.714 ZM77.546,22.301 C78.681,22.323 79.620,21.416 79.642,20.276 C79.642,19.562 78.708,17.268 77.586,14.912 C76.465,17.268 75.531,19.562 75.531,20.276 C75.552,21.385 76.442,22.279 77.546,22.301 Z"/>
</svg>