<svg 
 xmlns="http://www.w3.org/2000/svg"
 xmlns:xlink="http://www.w3.org/1999/xlink">
<path fill-rule="evenodd"  fill="rgb(51, 51, 51)"
 d="M75.660,65.962 C75.053,66.565 74.252,66.906 73.399,66.928 L73.399,75.388 C73.399,77.468 71.696,79.159 69.604,79.159 L64.788,79.159 C63.999,79.159 63.359,78.523 63.359,77.740 L63.359,70.684 C63.359,70.169 62.937,69.751 62.419,69.751 L59.580,69.751 C59.062,69.751 58.641,70.169 58.641,70.684 L58.641,77.740 C58.641,78.523 57.1000,79.159 57.211,79.159 L52.397,79.159 C50.303,79.159 48.601,77.468 48.601,75.388 L48.601,66.928 C48.577,66.928 48.554,66.926 48.532,66.925 C47.703,66.885 46.926,66.545 46.339,65.962 C45.049,64.678 45.046,62.588 46.333,61.301 L58.650,49.065 C59.278,48.441 60.112,48.098 60.1000,48.098 C61.888,48.098 62.721,48.441 63.349,49.065 L75.675,61.310 C76.954,62.599 76.949,64.681 75.660,65.962 ZM73.644,63.307 L61.329,51.072 C61.150,50.895 60.849,50.895 60.672,51.072 L48.423,63.238 L48.313,63.459 L48.257,63.459 C48.192,63.625 48.226,63.821 48.361,63.955 C48.445,64.040 48.559,64.087 48.681,64.090 C48.696,64.090 48.713,64.090 48.730,64.091 L50.028,64.091 C50.817,64.091 51.457,64.728 51.457,65.510 L51.457,75.388 C51.457,75.902 51.879,76.321 52.397,76.321 L55.784,76.321 L55.784,70.684 C55.784,68.604 57.487,66.912 59.580,66.912 L62.419,66.912 C64.513,66.912 66.216,68.604 66.216,70.684 L66.216,76.321 L69.604,76.321 C70.122,76.321 70.542,75.902 70.542,75.388 L70.542,65.510 C70.542,64.728 71.183,64.091 71.971,64.091 L73.310,64.091 C73.436,64.091 73.549,64.045 73.640,63.955 C73.819,63.778 73.820,63.487 73.644,63.307 ZM52.871,44.800 C52.871,45.654 52.174,46.345 51.316,46.345 L24.310,46.345 C23.451,46.345 22.755,45.653 22.755,44.800 C22.755,43.947 23.451,43.256 24.310,43.256 L51.316,43.256 C52.174,43.256 52.871,43.947 52.871,44.800 ZM22.755,53.452 C22.755,52.599 23.451,51.907 24.310,51.907 L39.809,51.907 C40.667,51.907 41.364,52.599 41.364,53.452 C41.364,54.305 40.667,54.997 39.809,54.997 L24.310,54.997 C23.451,54.997 22.755,54.305 22.755,53.452 ZM24.310,63.648 C23.901,63.648 23.499,63.483 23.210,63.195 C22.921,62.908 22.755,62.510 22.755,62.103 C22.755,61.697 22.921,61.298 23.210,61.011 C23.501,60.723 23.901,60.558 24.310,60.558 C24.720,60.558 25.120,60.723 25.409,61.011 C25.700,61.298 25.865,61.697 25.865,62.103 C25.865,62.510 25.700,62.908 25.409,63.195 C25.120,63.483 24.720,63.648 24.310,63.648 ZM31.411,11.436 C38.957,11.436 45.096,17.535 45.096,25.031 C45.096,32.528 38.957,38.626 31.411,38.626 C23.866,38.626 17.727,32.528 17.727,25.031 C17.727,17.535 23.866,11.436 31.411,11.436 ZM31.411,35.536 C37.242,35.536 41.986,30.824 41.986,25.031 C41.986,19.238 37.242,14.526 31.411,14.526 C25.581,14.526 20.837,19.238 20.837,25.031 C20.837,30.824 25.581,35.536 31.411,35.536 ZM25.724,23.486 L29.857,23.486 L29.857,19.381 C29.857,18.528 30.553,17.836 31.411,17.836 C32.270,17.836 32.967,18.528 32.967,19.381 L32.967,23.486 L37.099,23.486 C37.958,23.486 38.654,24.178 38.654,25.031 C38.654,25.884 37.958,26.576 37.099,26.576 L32.967,26.576 L32.967,30.681 C32.967,31.534 32.270,32.226 31.411,32.226 C30.553,32.226 29.857,31.535 29.857,30.681 L29.857,26.576 L25.724,26.576 C24.866,26.576 24.169,25.884 24.169,25.031 C24.169,24.178 24.866,23.486 25.724,23.486 ZM11.507,43.256 L16.574,43.256 C17.433,43.256 18.129,43.947 18.129,44.800 C18.129,45.653 17.433,46.345 16.574,46.345 L11.507,46.345 C10.649,46.345 9.952,45.653 9.952,44.800 C9.952,43.947 10.648,43.256 11.507,43.256 ZM16.574,60.558 C17.433,60.558 18.129,61.250 18.129,62.103 C18.129,62.956 17.433,63.648 16.574,63.648 L11.507,63.648 C10.649,63.648 9.952,62.956 9.952,62.103 C9.952,61.250 10.648,60.558 11.507,60.558 L16.574,60.558 ZM11.507,51.907 L16.574,51.907 C17.433,51.907 18.129,52.599 18.129,53.452 C18.129,54.305 17.433,54.997 16.574,54.997 L11.507,54.997 C10.649,54.997 9.952,54.305 9.952,53.452 C9.952,52.599 10.648,51.907 11.507,51.907 ZM61.268,42.931 C60.409,42.931 59.713,42.239 59.713,41.386 L59.713,16.839 L50.538,16.839 C47.966,16.839 45.873,14.759 45.873,12.204 L45.873,3.089 L4.665,3.089 C3.808,3.089 3.110,3.782 3.110,4.634 L3.110,74.463 C3.110,75.314 3.808,76.007 4.665,76.007 L41.208,76.007 C42.067,76.007 42.763,76.699 42.763,77.552 C42.763,78.405 42.067,79.097 41.208,79.097 L4.665,79.097 C2.093,79.097 -0.000,77.018 -0.000,74.463 L-0.000,4.634 C-0.000,2.079 2.093,-0.001 4.665,-0.001 L47.428,-0.001 C47.841,-0.001 48.236,0.162 48.528,0.452 L62.368,14.201 C62.659,14.491 62.823,14.884 62.823,15.294 L62.823,41.386 C62.823,42.239 62.126,42.931 61.268,42.931 ZM48.983,5.274 L48.983,12.204 C48.983,13.056 49.681,13.749 50.538,13.749 L57.514,13.749 L48.983,5.274 Z"/>
</svg>