<svg 
 xmlns="http://www.w3.org/2000/svg"
 xmlns:xlink="http://www.w3.org/1999/xlink">
<path fill-rule="evenodd"  fill="rgb(51, 51, 51)"
 d="M70.238,52.230 L66.816,69.512 C66.367,71.797 64.351,73.449 62.029,73.449 L58.565,73.449 C56.243,73.449 54.227,71.797 53.779,69.512 L52.098,60.993 C51.924,60.109 52.498,59.250 53.381,59.075 L53.382,59.075 C54.265,58.901 55.122,59.476 55.296,60.360 L56.977,68.879 C57.119,69.634 57.791,70.185 58.565,70.185 L62.029,70.185 C62.803,70.185 63.475,69.634 63.617,68.879 L67.549,48.966 L70.075,48.966 C70.971,48.966 71.704,48.232 71.704,47.334 L71.704,34.276 C71.704,31.583 69.504,29.379 66.816,29.379 L60.297,29.379 C59.397,29.379 58.667,28.649 58.667,27.747 C58.667,26.846 59.397,26.115 60.297,26.115 L66.816,26.115 C71.316,26.115 74.964,29.770 74.964,34.277 L74.964,47.334 C74.964,49.986 72.866,52.129 70.238,52.230 ZM60.297,22.850 C55.795,22.850 52.149,19.198 52.149,14.690 C52.149,10.181 55.795,6.529 60.297,6.529 C64.799,6.529 68.445,10.181 68.445,14.690 C68.445,19.198 64.799,22.850 60.297,22.850 ZM60.297,9.793 C57.608,9.793 55.408,11.996 55.408,14.690 C55.408,17.383 57.608,19.586 60.297,19.586 C62.986,19.586 65.186,17.383 65.186,14.690 C65.186,11.996 62.986,9.793 60.297,9.793 ZM53.779,48.966 C53.779,51.660 51.579,53.863 48.890,53.863 L48.829,53.863 L45.610,73.715 C45.406,76.428 43.329,78.346 40.456,78.346 L34.508,78.346 C31.615,78.346 29.537,76.428 29.334,73.572 L26.075,53.863 C23.385,53.863 21.186,51.660 21.186,48.966 L21.186,31.012 C21.186,26.503 24.832,22.850 29.334,22.850 L45.630,22.850 C50.132,22.850 53.779,26.503 53.779,31.012 L53.779,48.966 ZM50.519,31.012 C50.519,28.318 48.319,26.115 45.630,26.115 L45.630,34.276 C45.630,35.178 44.901,35.909 44.001,35.909 L44.000,35.909 C43.100,35.909 42.371,35.178 42.371,34.276 L42.371,26.115 L34.223,26.115 L34.223,31.316 C36.112,31.994 37.482,33.790 37.482,35.909 L37.482,40.805 C37.482,41.706 36.752,42.437 35.852,42.437 C34.952,42.437 34.223,41.706 34.223,40.805 L34.223,35.960 C34.223,35.111 33.598,34.367 32.755,34.284 C31.786,34.189 30.964,34.957 30.964,35.909 L30.964,40.805 C30.964,41.706 30.234,42.437 29.334,42.437 L29.333,42.437 C28.433,42.437 27.704,41.706 27.704,40.805 L27.704,36.008 C27.704,33.876 29.070,32.023 30.964,31.322 L30.964,26.115 L29.334,26.115 C26.645,26.115 24.445,28.318 24.445,31.012 L24.445,48.966 C24.445,49.864 25.178,50.599 26.075,50.599 L28.906,50.599 L32.573,73.184 C32.675,74.490 33.326,75.082 34.508,75.082 L40.456,75.082 C41.638,75.082 42.290,74.490 42.371,73.327 L46.037,50.599 L48.890,50.599 C49.786,50.599 50.519,49.864 50.519,48.966 L50.519,31.012 ZM37.482,19.586 C32.084,19.586 27.704,15.199 27.704,9.793 C27.704,4.387 32.084,-0.000 37.482,-0.000 C42.880,-0.000 47.260,4.387 47.260,9.793 C47.260,15.199 42.880,19.586 37.482,19.586 ZM37.482,3.264 C33.897,3.264 30.964,6.202 30.964,9.793 C30.964,13.384 33.897,16.322 37.482,16.322 C41.067,16.322 44.001,13.384 44.001,9.793 C44.001,6.202 41.067,3.264 37.482,3.264 ZM14.667,22.850 C10.165,22.850 6.519,19.198 6.519,14.690 C6.519,10.181 10.165,6.529 14.667,6.529 C19.169,6.529 22.815,10.181 22.815,14.690 C22.815,19.198 19.169,22.850 14.667,22.850 ZM14.667,9.793 C11.978,9.793 9.778,11.996 9.778,14.690 C9.778,17.383 11.978,19.586 14.667,19.586 C17.356,19.586 19.556,17.383 19.556,14.690 C19.556,11.996 17.356,9.793 14.667,9.793 ZM14.667,26.115 C15.567,26.115 16.297,26.846 16.297,27.747 C16.297,28.649 15.567,29.379 14.667,29.379 L8.148,29.379 C5.459,29.379 3.259,31.583 3.259,34.276 L3.259,47.334 C3.259,48.232 3.992,48.966 4.889,48.966 L7.394,48.966 L11.326,68.879 C11.469,69.634 12.141,70.185 12.915,70.185 L16.378,70.185 C17.152,70.185 17.824,69.634 17.967,68.879 L19.648,60.360 C19.822,59.476 20.679,58.901 21.562,59.075 L21.563,59.075 C22.446,59.250 23.020,60.109 22.846,60.993 L21.165,69.512 C20.737,71.797 18.721,73.449 16.398,73.449 L12.936,73.449 C10.613,73.449 8.596,71.797 8.148,69.512 L4.726,52.230 C2.098,52.129 -0.000,49.986 -0.000,47.334 L-0.000,34.276 C-0.000,29.769 3.648,26.115 8.148,26.115 L14.667,26.115 Z"/>
</svg>