<svg 
 xmlns="http://www.w3.org/2000/svg"
 xmlns:xlink="http://www.w3.org/1999/xlink">
<path fill-rule="evenodd"  fill="rgb(51, 51, 51)"
 d="M75.216,29.041 C72.874,26.709 69.772,25.539 66.668,25.539 C63.638,25.539 60.608,26.652 58.282,28.887 L57.624,29.520 L56.964,28.887 C52.255,24.362 44.658,24.431 40.030,29.041 C37.746,31.314 36.489,34.337 36.489,37.553 C36.489,40.769 37.746,43.791 40.030,46.064 L56.194,62.164 L56.194,70.893 C56.194,73.663 53.931,75.916 51.152,75.916 C48.370,75.916 46.107,73.663 46.107,70.893 L46.107,68.025 C46.107,63.690 42.568,60.165 38.218,60.165 C33.868,60.165 30.328,63.690 30.328,68.025 L30.328,70.893 C30.328,73.663 28.065,75.916 25.284,75.916 C22.504,75.916 20.241,73.663 20.241,70.893 L20.241,43.670 L20.899,43.459 C23.405,42.651 25.236,40.452 25.562,37.855 L26.204,32.747 L26.664,32.522 C28.050,31.847 29.340,30.995 30.502,29.991 C33.744,27.191 35.865,23.318 36.472,19.086 L37.562,11.481 C37.611,11.141 37.636,10.793 37.636,10.450 C37.636,8.503 36.872,6.671 35.487,5.290 C34.100,3.910 32.261,3.150 30.306,3.150 L28.148,3.150 L28.148,1.417 C28.148,0.636 27.509,-0.000 26.724,-0.000 C25.940,-0.000 25.301,0.636 25.301,1.417 L25.301,7.717 C25.301,8.499 25.940,9.135 26.724,9.135 C27.509,9.135 28.148,8.499 28.148,7.717 L28.148,5.985 L30.306,5.985 C32.779,5.985 34.789,7.988 34.789,10.450 C34.789,10.659 34.773,10.872 34.745,11.081 L33.654,18.684 C32.606,25.991 26.228,31.500 18.818,31.500 C11.408,31.500 5.030,25.991 3.982,18.684 L2.892,11.081 C2.862,10.872 2.846,10.659 2.846,10.450 C2.846,7.988 4.858,5.985 7.329,5.985 L9.488,5.985 L9.488,7.717 C9.488,8.499 10.127,9.135 10.911,9.135 C11.695,9.135 12.334,8.499 12.334,7.717 L12.334,1.417 C12.334,0.636 11.695,-0.000 10.911,-0.000 C10.127,-0.000 9.488,0.636 9.488,1.417 L9.488,3.150 L7.329,3.150 C3.287,3.150 -0.000,6.424 -0.000,10.450 C-0.000,10.793 0.025,11.141 0.074,11.481 L1.164,19.086 C1.771,23.318 3.892,27.191 7.133,29.993 C8.296,30.996 9.586,31.847 10.971,32.522 L11.431,32.747 L12.073,37.855 C12.399,40.452 14.230,42.651 16.738,43.459 L17.395,43.670 L17.395,70.893 C17.395,75.225 20.934,78.751 25.284,78.751 C29.636,78.751 33.175,75.225 33.175,70.893 L33.175,68.025 C33.175,65.254 35.438,63.000 38.218,63.000 C40.999,63.000 43.261,65.254 43.261,68.025 L43.261,70.893 C43.261,75.225 46.801,78.751 51.152,78.751 C55.502,78.751 59.041,75.225 59.041,70.893 L59.041,62.177 L75.218,46.064 C77.495,43.794 78.751,40.772 78.751,37.553 C78.751,34.333 77.495,31.311 75.216,29.041 ZM18.818,40.950 C16.830,40.950 15.144,39.468 14.898,37.504 L14.437,33.839 L15.704,34.062 C17.760,34.425 19.877,34.425 21.932,34.061 L23.198,33.837 L22.738,37.504 C22.491,39.468 20.806,40.950 18.818,40.950 ZM57.624,47.565 C55.793,47.565 54.303,46.081 54.303,44.258 C54.303,42.434 55.793,40.950 57.624,40.950 C59.455,40.950 60.945,42.434 60.945,44.258 C60.945,46.081 59.455,47.565 57.624,47.565 ZM73.205,44.059 C73.205,44.061 73.205,44.061 73.205,44.061 L59.041,58.167 L59.041,50.273 L59.673,50.050 C62.135,49.183 63.791,46.855 63.791,44.258 C63.791,40.871 61.024,38.115 57.624,38.115 C54.222,38.115 51.457,40.871 51.457,44.258 C51.457,46.850 53.108,49.176 55.563,50.047 L56.194,50.270 L56.194,58.156 L42.043,44.059 C40.297,42.322 39.336,40.011 39.336,37.553 C39.336,35.094 40.297,32.784 42.043,31.046 C43.786,29.309 46.105,28.355 48.576,28.355 C51.047,28.355 53.367,29.309 55.110,31.046 L56.617,32.547 C56.885,32.815 57.243,32.963 57.624,32.963 C58.004,32.963 58.361,32.815 58.630,32.547 L60.138,31.045 C63.741,27.457 69.601,27.457 73.205,31.046 C74.947,32.781 75.907,35.092 75.907,37.553 C75.907,40.013 74.946,42.325 73.205,44.059 Z"/>
</svg>