<svg 
 xmlns="http://www.w3.org/2000/svg"
 xmlns:xlink="http://www.w3.org/1999/xlink">
<path fill-rule="evenodd"  fill="rgb(51, 51, 51)"
 d="M83.978,60.286 L73.906,70.375 C73.075,71.208 72.232,71.630 71.400,71.630 C70.259,71.630 68.926,70.760 68.926,68.309 L68.926,64.928 C58.766,65.311 49.500,70.160 43.346,78.366 C43.095,78.700 42.706,78.887 42.303,78.887 C42.166,78.887 42.027,78.865 41.891,78.820 C41.359,78.642 40.1000,78.143 41.000,77.581 C41.001,69.761 44.041,62.410 49.562,56.880 C54.774,51.660 61.608,48.654 68.926,48.334 L68.926,44.899 C68.926,42.448 70.259,41.579 71.400,41.579 C72.232,41.579 73.074,42.001 73.906,42.833 L83.978,52.922 C84.957,53.903 85.496,55.210 85.496,56.604 C85.496,57.999 84.957,59.306 83.978,60.286 ZM82.134,54.769 L72.062,44.680 C71.869,44.487 71.709,44.364 71.591,44.290 C71.560,44.426 71.533,44.626 71.533,44.899 L71.533,49.611 C71.533,50.333 70.949,50.917 70.229,50.917 C56.876,50.917 45.787,60.818 43.892,73.675 C46.740,70.658 50.102,68.124 53.780,66.243 C58.903,63.621 64.437,62.292 70.229,62.292 C70.949,62.292 71.533,62.876 71.533,63.598 L71.533,68.309 C71.533,68.583 71.560,68.783 71.591,68.919 C71.709,68.845 71.869,68.723 72.062,68.529 L82.134,58.440 C82.621,57.953 82.889,57.301 82.889,56.604 C82.889,55.908 82.621,55.256 82.134,54.769 ZM60.440,45.636 C59.593,45.636 58.906,44.948 58.906,44.099 L58.906,16.748 L49.856,16.748 C47.318,16.748 45.254,14.680 45.254,12.139 L45.254,3.073 L4.602,3.073 C3.756,3.073 3.068,3.762 3.068,4.609 L3.068,74.063 C3.068,74.910 3.756,75.599 4.602,75.599 L33.905,75.599 C34.752,75.599 35.439,76.287 35.439,77.136 C35.439,77.984 34.752,78.672 33.905,78.672 L4.602,78.672 C2.064,78.672 -0.000,76.604 -0.000,74.063 L-0.000,4.609 C-0.000,2.068 2.064,-0.001 4.602,-0.001 L46.788,-0.001 C47.195,-0.001 47.585,0.161 47.872,0.449 L61.525,14.125 C61.813,14.413 61.975,14.804 61.974,15.212 L61.974,44.099 C61.974,44.948 61.287,45.636 60.440,45.636 ZM48.322,5.246 L48.322,12.139 C48.322,12.985 49.010,13.675 49.856,13.675 L56.737,13.675 L48.322,5.246 ZM23.981,60.233 C24.386,60.233 24.780,60.398 25.066,60.683 C25.353,60.969 25.515,61.365 25.515,61.770 C25.515,62.174 25.353,62.570 25.066,62.856 C24.780,63.142 24.386,63.307 23.981,63.307 C23.578,63.307 23.182,63.142 22.897,62.856 C22.611,62.570 22.447,62.174 22.447,61.770 C22.447,61.365 22.611,60.969 22.897,60.683 C23.183,60.398 23.578,60.233 23.981,60.233 ZM52.157,44.560 C52.157,45.408 51.470,46.097 50.623,46.097 L23.982,46.097 C23.135,46.097 22.448,45.408 22.448,44.560 C22.448,43.712 23.135,43.023 23.982,43.023 L50.623,43.023 C51.470,43.023 52.157,43.712 52.157,44.560 ZM30.987,11.375 C38.431,11.375 44.487,17.441 44.487,24.897 C44.487,32.353 38.431,38.419 30.987,38.419 C23.543,38.419 17.487,32.353 17.487,24.897 C17.487,17.441 23.543,11.375 30.987,11.375 ZM30.987,35.345 C36.739,35.345 41.419,30.658 41.419,24.897 C41.419,19.135 36.739,14.448 30.987,14.448 C25.235,14.448 20.556,19.135 20.556,24.897 C20.556,30.658 25.235,35.345 30.987,35.345 ZM25.377,23.360 L29.453,23.360 L29.453,19.277 C29.453,18.428 30.140,17.740 30.987,17.740 C31.834,17.740 32.521,18.428 32.521,19.277 L32.521,23.360 L36.598,23.360 C37.445,23.360 38.132,24.048 38.132,24.897 C38.132,25.745 37.445,26.433 36.598,26.433 L32.521,26.433 L32.521,30.516 C32.521,31.365 31.834,32.053 30.987,32.053 C30.140,32.053 29.453,31.365 29.453,30.516 L29.453,26.433 L25.377,26.433 C24.530,26.433 23.843,25.745 23.843,24.897 C23.843,24.048 24.530,23.360 25.377,23.360 ZM11.351,43.023 L16.350,43.023 C17.197,43.023 17.884,43.712 17.884,44.560 C17.884,45.408 17.197,46.097 16.350,46.097 L11.351,46.097 C10.504,46.097 9.818,45.408 9.818,44.560 C9.818,43.712 10.504,43.023 11.351,43.023 ZM16.350,60.233 C17.197,60.233 17.884,60.921 17.884,61.770 C17.884,62.618 17.197,63.306 16.350,63.306 L11.351,63.306 C10.504,63.306 9.818,62.618 9.818,61.770 C9.818,60.921 10.504,60.233 11.351,60.233 L16.350,60.233 ZM11.351,51.628 L16.350,51.628 C17.197,51.628 17.884,52.316 17.884,53.165 C17.884,54.013 17.197,54.701 16.350,54.701 L11.351,54.701 C10.504,54.701 9.818,54.013 9.818,53.165 C9.818,52.316 10.504,51.628 11.351,51.628 ZM22.448,53.165 C22.448,52.316 23.135,51.628 23.982,51.628 L39.271,51.628 C40.118,51.628 40.805,52.316 40.805,53.165 C40.805,54.013 40.118,54.701 39.271,54.701 L23.982,54.701 C23.135,54.701 22.448,54.013 22.448,53.165 Z"/>
</svg>