<svg 
 xmlns="http://www.w3.org/2000/svg"
 xmlns:xlink="http://www.w3.org/1999/xlink">
<path fill-rule="evenodd"  fill="rgb(51, 51, 51)"
 d="M69.434,78.999 C64.284,78.999 60.074,74.907 59.877,69.804 L53.485,76.197 C51.620,78.062 49.170,78.995 46.721,78.995 C44.271,78.995 41.822,78.062 39.957,76.197 C38.150,74.391 37.155,71.988 37.155,69.433 C37.155,66.877 38.150,64.475 39.957,62.668 L52.175,50.449 C53.982,48.642 56.384,47.647 58.940,47.647 C61.495,47.647 63.897,48.642 65.703,50.449 C68.273,53.019 69.072,56.700 68.100,59.961 C68.536,59.900 68.981,59.866 69.434,59.866 C74.709,59.866 78.1000,64.158 78.1000,69.433 C78.1000,74.708 74.709,78.999 69.434,78.999 ZM42.138,64.851 C40.914,66.075 40.240,67.702 40.240,69.433 C40.240,71.164 40.914,72.791 42.138,74.015 C44.665,76.542 48.776,76.542 51.302,74.015 L56.321,68.997 L47.157,59.832 L42.138,64.851 ZM63.521,52.631 C62.297,51.407 60.670,50.733 58.939,50.733 C57.208,50.733 55.581,51.407 54.357,52.631 L49.339,57.650 L58.503,66.814 L63.521,61.796 C66.048,59.269 66.048,55.158 63.521,52.631 ZM67.891,63.139 C65.060,63.834 62.954,66.391 62.954,69.433 C62.954,72.475 65.061,75.032 67.891,75.726 L67.891,63.139 ZM70.977,63.139 L70.977,75.726 C73.807,75.032 75.914,72.474 75.914,69.433 C75.914,66.391 73.807,63.834 70.977,63.139 ZM39.497,54.929 L24.120,54.929 C23.268,54.929 22.577,54.238 22.577,53.386 C22.577,52.534 23.268,51.843 24.120,51.843 L39.497,51.843 C40.349,51.843 41.040,52.534 41.040,53.386 C41.040,54.238 40.349,54.929 39.497,54.929 ZM24.120,60.484 C24.527,60.484 24.923,60.649 25.210,60.936 C25.499,61.223 25.662,61.621 25.662,62.027 C25.662,62.432 25.499,62.831 25.210,63.118 C24.923,63.405 24.527,63.570 24.120,63.570 C23.714,63.570 23.316,63.405 23.029,63.118 C22.741,62.831 22.577,62.432 22.577,62.027 C22.577,61.621 22.742,61.223 23.029,60.936 C23.317,60.649 23.714,60.484 24.120,60.484 ZM52.457,44.745 C52.457,45.597 51.767,46.289 50.915,46.289 L24.120,46.289 C23.268,46.289 22.577,45.597 22.577,44.745 C22.577,43.894 23.268,43.203 24.120,43.203 L50.915,43.203 C51.767,43.203 52.458,43.894 52.457,44.745 ZM31.166,11.422 C38.652,11.422 44.743,17.513 44.743,25.000 C44.743,32.487 38.652,38.579 31.166,38.579 C23.679,38.579 17.589,32.487 17.589,25.000 C17.589,17.513 23.679,11.422 31.166,11.422 ZM31.166,35.493 C36.951,35.493 41.657,30.786 41.657,25.000 C41.657,19.215 36.951,14.508 31.166,14.508 C25.381,14.508 20.674,19.215 20.674,25.000 C20.674,30.786 25.381,35.493 31.166,35.493 ZM25.523,23.458 L29.623,23.458 L29.623,19.357 C29.623,18.505 30.314,17.814 31.166,17.814 C32.018,17.814 32.709,18.505 32.709,19.357 L32.709,23.458 L36.809,23.458 C37.661,23.458 38.352,24.148 38.352,25.000 C38.352,25.853 37.661,26.543 36.809,26.543 L32.709,26.543 L32.709,30.644 C32.709,31.495 32.018,32.187 31.166,32.187 C30.314,32.187 29.623,31.496 29.623,30.644 L29.623,26.543 L25.523,26.543 C24.671,26.543 23.980,25.853 23.980,25.000 C23.980,24.148 24.671,23.458 25.523,23.458 ZM11.417,43.203 L16.444,43.203 C17.296,43.203 17.987,43.894 17.987,44.745 C17.987,45.597 17.296,46.289 16.444,46.289 L11.417,46.289 C10.565,46.289 9.874,45.597 9.874,44.745 C9.874,43.894 10.565,43.203 11.417,43.203 ZM16.444,60.484 C17.296,60.484 17.987,61.175 17.987,62.027 C17.987,62.879 17.296,63.570 16.444,63.570 L11.417,63.570 C10.565,63.570 9.874,62.879 9.874,62.027 C9.874,61.175 10.565,60.484 11.417,60.484 L16.444,60.484 ZM11.417,51.843 L16.444,51.843 C17.296,51.843 17.987,52.534 17.987,53.386 C17.987,54.238 17.296,54.929 16.444,54.929 L11.417,54.929 C10.565,54.929 9.874,54.238 9.874,53.386 C9.874,52.534 10.565,51.843 11.417,51.843 ZM60.789,45.826 C59.937,45.826 59.246,45.135 59.246,44.283 L59.246,16.818 L50.143,16.818 C47.591,16.818 45.514,14.741 45.514,12.189 L45.514,3.086 L4.629,3.086 C3.778,3.086 3.086,3.778 3.086,4.629 L3.086,74.371 C3.086,75.222 3.778,75.914 4.629,75.914 L34.100,75.914 C34.952,75.914 35.643,76.605 35.643,77.457 C35.643,78.309 34.953,78.1000 34.100,78.1000 L4.629,78.1000 C2.076,78.1000 -0.000,76.923 -0.000,74.371 L-0.000,4.629 C-0.000,2.076 2.076,-0.001 4.629,-0.001 L47.057,-0.001 C47.467,-0.001 47.859,0.162 48.148,0.452 L61.880,14.184 C62.169,14.474 62.332,14.866 62.331,15.275 L62.331,44.283 C62.331,45.135 61.641,45.826 60.789,45.826 ZM48.600,5.268 L48.600,12.189 C48.600,13.040 49.292,13.732 50.143,13.732 L57.064,13.732 L48.600,5.268 Z"/>
</svg>