<svg 
 xmlns="http://www.w3.org/2000/svg"
 xmlns:xlink="http://www.w3.org/1999/xlink">
<path fill-rule="evenodd"  fill="rgb(51, 51, 51)"
 d="M65.687,54.749 C63.474,60.737 60.128,65.941 55.737,70.216 C50.728,75.092 44.161,78.962 36.217,81.720 C35.235,82.060 34.151,82.062 33.166,81.720 C25.225,78.962 18.658,75.093 13.650,70.216 C9.260,65.942 5.912,60.738 3.701,54.749 C-0.336,43.817 -0.105,31.727 0.081,22.014 C0.120,19.925 0.159,17.951 0.159,16.021 C0.159,13.450 2.248,11.359 4.814,11.359 C15.957,11.359 24.420,8.171 31.446,1.329 C32.356,0.442 33.525,-0.000 34.692,-0.000 C35.860,-0.000 37.029,0.442 37.939,1.329 C44.966,8.171 53.430,11.359 64.573,11.359 C67.140,11.359 69.229,13.450 69.229,16.021 C69.229,17.898 69.266,19.846 69.305,21.909 L69.307,22.012 C69.493,31.726 69.722,43.815 65.687,54.749 ZM65.456,22.086 L65.454,22.006 C65.416,19.923 65.377,17.955 65.377,16.021 C65.377,15.576 65.017,15.214 64.573,15.214 C52.362,15.214 43.046,11.681 35.253,4.093 C35.101,3.946 34.903,3.865 34.692,3.865 C34.483,3.865 34.283,3.946 34.131,4.094 C26.339,11.681 17.023,15.214 4.814,15.214 C4.371,15.214 4.010,15.576 4.010,16.021 C4.010,17.983 3.972,19.977 3.931,22.088 C3.743,31.965 3.529,43.162 7.313,53.412 C11.660,65.183 20.529,73.252 34.428,78.075 C34.513,78.105 34.603,78.120 34.692,78.120 C34.781,78.120 34.870,78.105 34.954,78.077 C48.857,73.252 57.727,65.183 62.074,53.411 C65.859,43.161 65.645,31.964 65.456,22.086 ZM46.862,42.911 L36.904,42.911 L36.904,52.807 C36.904,54.027 35.912,55.020 34.693,55.020 C33.475,55.020 32.483,54.027 32.483,52.807 L32.483,42.911 L22.709,42.911 C21.491,42.911 20.498,41.917 20.498,40.697 C20.498,39.477 21.491,38.483 22.709,38.483 L32.483,38.483 L32.483,28.622 C32.483,27.402 33.475,26.408 34.693,26.408 C35.912,26.408 36.904,27.402 36.904,28.622 L36.904,38.483 L46.862,38.483 C47.472,38.483 48.025,38.732 48.425,39.132 C48.825,39.533 49.073,40.087 49.073,40.697 C49.073,41.917 48.081,42.911 46.862,42.911 Z"/>
</svg>