<svg xmlns="http://www.w3.org/2000/svg" xmlns:xlink="http://www.w3.org/1999/xlink" width="1376px" height="400px">
    <path fill-rule="evenodd" stroke-width="4px" stroke="rgb(76, 107, 186)" fill="rgb(255, 255, 255)"
        d="M1366.484,278.777 C1338.044,279.201 1333.982,271.617 1332.405,264.458 L1332.345,264.215 C1325.068,231.634 1318.216,200.873 1303.845,200.873 C1285.714,200.873 1283.106,232.544 1280.559,263.123 C1278.498,287.453 1276.618,310.387 1266.976,318.396 C1264.611,320.398 1261.822,321.369 1258.729,321.369 C1258.184,321.369 1257.638,321.308 1257.153,321.247 C1238.294,319.245 1233.504,287.453 1229.684,261.849 C1228.592,254.750 1227.622,248.137 1226.409,242.615 C1226.227,241.766 1226.773,240.978 1227.561,240.795 C1228.410,240.613 1229.199,241.160 1229.380,241.948 C1230.593,247.530 1231.563,254.265 1232.655,261.363 C1236.293,285.936 1240.902,316.454 1257.456,318.214 C1260.427,318.517 1262.913,317.850 1265.096,316.030 C1273.768,308.870 1275.708,285.511 1277.588,262.880 C1280.196,230.906 1282.985,197.839 1303.905,197.839 C1320.702,197.839 1327.493,228.297 1335.376,263.548 L1335.437,263.790 C1336.407,268.401 1338.166,276.168 1366.484,275.743 C1367.333,275.743 1368.000,276.410 1368.000,277.260 C1368.000,278.049 1367.333,278.777 1366.484,278.777 ZM1211.777,232.980 C1210.193,232.980 1208.909,231.695 1208.909,230.110 C1208.909,228.526 1210.193,227.241 1211.777,227.241 C1213.361,227.241 1214.645,228.526 1214.645,230.110 C1214.645,231.695 1213.361,232.980 1211.777,232.980 ZM1192.876,348.672 C1188.086,377.430 1179.293,391.507 1165.953,391.628 C1165.831,391.628 1165.710,391.628 1165.589,391.628 C1145.457,391.628 1132.298,375.489 1125.325,342.241 C1119.382,313.603 1118.715,277.078 1118.109,241.766 C1117.381,198.203 1116.654,157.067 1104.890,146.692 C1102.707,144.751 1100.220,144.022 1097.310,144.326 C1076.935,146.571 1078.815,188.556 1080.816,233.029 C1082.757,275.318 1084.697,319.003 1068.082,336.416 C1063.170,341.573 1056.803,344.182 1049.163,344.182 C1014.356,344.182 1010.294,263.730 1005.988,178.545 C1002.774,114.839 999.439,49.009 982.218,22.374 C981.733,21.646 981.915,20.736 982.643,20.250 C983.370,19.765 984.280,19.947 984.765,20.675 C1002.411,47.978 1005.806,114.293 1009.020,178.303 C1013.083,258.330 1017.267,341.087 1049.224,341.087 C1056.136,341.087 1061.594,338.903 1065.960,334.292 C1081.726,317.850 1079.785,274.772 1077.906,233.151 C1075.844,187.221 1073.903,143.901 1097.067,141.292 C1100.827,140.868 1104.162,141.899 1106.951,144.386 C1119.685,155.611 1120.413,195.534 1121.201,241.706 C1121.808,276.896 1122.414,313.239 1128.357,341.633 C1134.966,373.244 1147.155,388.594 1165.589,388.594 C1165.710,388.594 1165.771,388.594 1165.892,388.594 C1177.353,388.533 1185.418,374.882 1189.844,348.186 C1193.786,324.584 1194.271,295.340 1194.695,271.799 C1194.877,260.514 1195.059,250.806 1195.544,243.647 C1195.605,242.798 1196.333,242.191 1197.181,242.252 C1198.030,242.312 1198.637,243.040 1198.576,243.890 C1198.091,250.928 1197.909,260.635 1197.727,271.860 C1197.363,295.462 1196.818,324.888 1192.876,348.672 ZM963.283,12.951 C961.971,12.951 960.907,11.886 960.907,10.573 C960.907,9.259 961.971,8.194 963.283,8.194 C964.596,8.194 965.660,9.259 965.660,10.573 C965.660,11.886 964.596,12.951 963.283,12.951 ZM927.704,168.777 C928.614,208.154 929.584,248.865 925.400,279.808 C923.096,296.615 919.518,309.234 914.485,318.457 C908.724,328.892 900.841,334.960 891.139,336.355 C888.350,336.780 885.742,336.962 883.195,336.962 C861.062,336.962 848.510,322.097 834.200,305.048 C813.704,280.840 788.296,250.746 723.352,250.746 C608.685,250.746 13.247,252.081 10.094,252.081 C9.245,252.081 8.578,251.413 8.578,250.564 C8.578,249.714 9.245,249.047 10.094,249.047 C13.248,248.986 608.685,247.712 723.352,247.712 C789.691,247.712 815.644,278.412 836.504,303.106 C852.512,322.036 865.125,336.962 890.715,333.261 C928.371,327.800 926.491,246.984 924.672,168.777 C923.156,104.767 921.761,44.276 940.196,19.036 C940.681,18.369 941.651,18.248 942.318,18.733 C942.985,19.219 943.106,20.190 942.621,20.857 C924.793,45.247 926.309,108.044 927.704,168.777 Z" />
</svg>